<?xml version="1.0" encoding="utf-8"?>
<svg xmlns="http://www.w3.org/2000/svg" viewBox="7.3209 72.7795 484.1352 365.4436" width="484.1352px" height="365.4436px"><defs><linearGradient gradientUnits="userSpaceOnUse" x1="67.266" y1="0.082" x2="67.266" y2="26.999" id="gradient-0" spreadMethod="pad" gradientTransform="matrix(-0.685963, 0.727636, -0.797883, -0.75218, 130.077681, -22.594368)"><stop offset="0" style="stop-color: rgb(0% 36.471% 99.608%)"/><stop offset="1" style="stop-color: rgb(0% 28.853% 52.339%)"/></linearGradient></defs><path d="M84.9895 24.5904C84.9678 24.5287 84.9424 24.4683 84.9135 24.4096L74.1277 2.61608C73.5737 1.33533 72.4198 0.413303 71.0483 0.155417C69.6769 -0.102468 68.2669 0.337452 67.2854 1.32945L64.6353 6.37521L58.2752 19.7715C57.2251 21.7955 55.5692 23.1357 53.5964 23.6049L63.335 3.99619C63.3545 3.9563 63.3725 3.91582 63.3891 3.87475C63.5483 3.51692 63.9035 3.28654 64.2951 3.28706C64.332 3.28769 64.3687 3.29041 64.4052 3.29522L66.007 0.44617C64.9808 -0.0113963 63.8141 -0.0388224 62.7675 0.370021C61.721 0.778864 60.8818 1.5899 60.4376 2.62191L49.6404 24.3653C49.6238 24.3965 49.6084 24.4282 49.5938 24.4611C49.3539 24.9922 49.3902 25.6073 49.6908 26.1066C49.9914 26.6059 50.5181 26.9257 51.0998 26.9621C51.3936 26.9866 51.6909 26.9988 51.9848 26.9988C55.8502 26.9988 59.2715 24.8388 61.1356 21.2198C61.1435 21.2043 61.1514 21.1889 61.1586 21.1729L67.2272 8.38902L67.2289 8.38494L67.2828 8.27195L69.0593 4.53991L69.0567 4.53438L69.324 3.97115C69.3352 3.94746 69.3458 3.92368 69.3557 3.8998C69.5095 3.52887 69.8715 3.28705 70.2731 3.28705C70.6746 3.28705 71.0366 3.52887 71.1905 3.8998C71.2036 3.93212 71.2196 3.96416 71.2338 3.99561L80.938 23.604C78.9792 23.1334 77.3315 21.7941 76.2828 19.7721L69.8962 6.30298L68.1329 10.0644L73.3988 21.1706C73.4064 21.1863 73.4142 21.2023 73.4221 21.218C75.3151 24.891 78.6397 26.9971 82.5464 26.9971C82.8549 26.9971 83.1671 26.9834 83.4743 26.9566C83.6688 26.9399 83.8587 26.8876 84.0343 26.8023C84.8887 26.4339 85.3075 25.4632 84.9892 24.589" transform="matrix(13.576800346374512, 0, 0, 13.576800346374512, -663.8690185546875, 71.66573333740234)" style="fill: url(&quot;#gradient-0&quot;); fill-rule: nonzero; paint-order: stroke;" id="object-0"/></svg>